<mxfile host="app.diagrams.net" agent="Mozilla/5.0 (Windows NT 10.0; Win64; x64) AppleWebKit/537.36 (KHTML, like Gecko) Chrome/128.0.0.0 Safari/537.36 OPR/114.0.0.0" version="24.8.0">
  <diagram name="Page-1" id="e56a1550-8fbb-45ad-956c-1786394a9013">
    <mxGraphModel dx="1377" dy="673" grid="1" gridSize="10" guides="1" tooltips="1" connect="1" arrows="1" fold="1" page="1" pageScale="1" pageWidth="1100" pageHeight="850" background="none" math="0" shadow="0">
      <root>
        <mxCell id="0" />
        <mxCell id="1" parent="0" />
        <mxCell id="4" value="Utente" style="rounded=1;whiteSpace=wrap;html=1;fontSize=12;glass=0;strokeWidth=1;shadow=0;" parent="1" vertex="1">
          <mxGeometry x="615" y="155" width="70" height="30" as="geometry" />
        </mxCell>
        <mxCell id="97" style="edgeStyle=none;rounded=0;html=1;entryX=0.812;entryY=0.319;entryDx=0;entryDy=0;endArrow=none;endFill=0;entryPerimeter=0;exitX=0.557;exitY=1;exitDx=0;exitDy=0;exitPerimeter=0;" parent="1" source="8" target="17" edge="1">
          <mxGeometry relative="1" as="geometry">
            <mxPoint x="520" y="376" as="sourcePoint" />
            <mxPoint x="762.5" y="385" as="targetPoint" />
            <Array as="points">
              <mxPoint x="560" y="380" />
            </Array>
          </mxGeometry>
        </mxCell>
        <mxCell id="8" value="Operatore" style="rounded=1;whiteSpace=wrap;html=1;fontSize=12;glass=0;strokeWidth=1;shadow=0;" parent="1" vertex="1">
          <mxGeometry x="521" y="240" width="70" height="30" as="geometry" />
        </mxCell>
        <mxCell id="9" style="edgeStyle=orthogonalEdgeStyle;rounded=0;orthogonalLoop=1;jettySize=auto;html=1;exitX=0.5;exitY=1;exitDx=0;exitDy=0;" parent="1" edge="1">
          <mxGeometry relative="1" as="geometry">
            <mxPoint x="790" y="247" as="sourcePoint" />
            <mxPoint x="790" y="247" as="targetPoint" />
          </mxGeometry>
        </mxCell>
        <mxCell id="12" style="edgeStyle=orthogonalEdgeStyle;rounded=0;orthogonalLoop=1;jettySize=auto;html=1;exitX=0.5;exitY=1;exitDx=0;exitDy=0;" parent="1" edge="1">
          <mxGeometry relative="1" as="geometry">
            <mxPoint x="345" y="154" as="sourcePoint" />
            <mxPoint x="345" y="154" as="targetPoint" />
          </mxGeometry>
        </mxCell>
        <mxCell id="68" value="" style="edgeStyle=none;html=1;exitX=0.5;exitY=1;exitDx=0;exitDy=0;entryX=0;entryY=0;entryDx=0;entryDy=0;endArrow=none;endFill=0;rounded=0;" parent="1" source="13" target="33" edge="1">
          <mxGeometry x="0.2524" relative="1" as="geometry">
            <Array as="points">
              <mxPoint x="60" y="170" />
              <mxPoint x="60" y="204" />
            </Array>
            <mxPoint as="offset" />
          </mxGeometry>
        </mxCell>
        <mxCell id="13" value="Citta" style="rounded=1;whiteSpace=wrap;html=1;fontSize=12;glass=0;strokeWidth=1;shadow=0;" parent="1" vertex="1">
          <mxGeometry x="27" y="151" width="70" height="30" as="geometry" />
        </mxCell>
        <mxCell id="14" value="Risorsa Pubblica" style="rounded=1;whiteSpace=wrap;html=1;fontSize=12;glass=0;strokeWidth=1;shadow=0;" parent="1" vertex="1">
          <mxGeometry x="100" y="223" width="70" height="30" as="geometry" />
        </mxCell>
        <mxCell id="15" value="Dato" style="rounded=1;whiteSpace=wrap;html=1;fontSize=12;glass=0;strokeWidth=1;shadow=0;" parent="1" vertex="1">
          <mxGeometry x="100" y="309" width="70" height="30" as="geometry" />
        </mxCell>
        <mxCell id="72" style="edgeStyle=none;rounded=0;html=1;exitX=0;exitY=1;exitDx=0;exitDy=0;entryX=1;entryY=0.25;entryDx=0;entryDy=0;endArrow=none;endFill=0;" parent="1" source="17" target="18" edge="1">
          <mxGeometry relative="1" as="geometry">
            <Array as="points">
              <mxPoint x="200" y="410" />
            </Array>
          </mxGeometry>
        </mxCell>
        <mxCell id="73" style="edgeStyle=none;rounded=0;html=1;exitX=0;exitY=0;exitDx=0;exitDy=0;endArrow=none;endFill=0;" parent="1" source="17" edge="1">
          <mxGeometry relative="1" as="geometry">
            <mxPoint x="60" y="289" as="targetPoint" />
            <mxPoint x="312" y="368.5" as="sourcePoint" />
            <Array as="points">
              <mxPoint x="60" y="374" />
            </Array>
          </mxGeometry>
        </mxCell>
        <mxCell id="17" value="Partecipazione" style="rhombus;whiteSpace=wrap;html=1;shadow=0;fontFamily=Helvetica;fontSize=12;align=center;strokeWidth=1;spacing=6;spacingTop=-4;" parent="1" vertex="1">
          <mxGeometry x="277" y="356" width="140" height="70" as="geometry" />
        </mxCell>
        <mxCell id="18" value="Evento" style="rounded=1;whiteSpace=wrap;html=1;fontSize=12;glass=0;strokeWidth=1;shadow=0;" parent="1" vertex="1">
          <mxGeometry x="100" y="413" width="70" height="30" as="geometry" />
        </mxCell>
        <mxCell id="69" style="edgeStyle=none;rounded=0;html=1;exitX=0;exitY=1;exitDx=0;exitDy=0;entryX=1;entryY=0.5;entryDx=0;entryDy=0;endArrow=none;endFill=0;" parent="1" source="33" target="14" edge="1">
          <mxGeometry relative="1" as="geometry" />
        </mxCell>
        <mxCell id="33" value="Spesa&amp;nbsp;&lt;div&gt;Pubblica&lt;/div&gt;" style="rhombus;whiteSpace=wrap;html=1;shadow=0;fontFamily=Helvetica;fontSize=12;align=center;strokeWidth=1;spacing=6;spacingTop=-4;" parent="1" vertex="1">
          <mxGeometry x="277" y="186" width="140" height="70" as="geometry" />
        </mxCell>
        <mxCell id="70" style="edgeStyle=none;rounded=0;html=1;exitX=0;exitY=1;exitDx=0;exitDy=0;entryX=1;entryY=0.5;entryDx=0;entryDy=0;endArrow=none;endFill=0;" parent="1" source="39" target="15" edge="1">
          <mxGeometry relative="1" as="geometry" />
        </mxCell>
        <mxCell id="71" style="edgeStyle=none;rounded=0;html=1;exitX=0;exitY=0;exitDx=0;exitDy=0;endArrow=none;endFill=0;" parent="1" source="39" edge="1">
          <mxGeometry relative="1" as="geometry">
            <mxPoint x="60" y="204" as="targetPoint" />
            <Array as="points">
              <mxPoint x="60" y="289" />
            </Array>
          </mxGeometry>
        </mxCell>
        <mxCell id="39" value="Sensore" style="rhombus;whiteSpace=wrap;html=1;shadow=0;fontFamily=Helvetica;fontSize=12;align=center;strokeWidth=1;spacing=6;spacingTop=-4;" parent="1" vertex="1">
          <mxGeometry x="277" y="271" width="140" height="70" as="geometry" />
        </mxCell>
        <mxCell id="53" value="Segnalazione" style="rhombus;whiteSpace=wrap;html=1;shadow=0;fontFamily=Helvetica;fontSize=12;align=center;strokeWidth=1;spacing=6;spacingTop=-4;" parent="1" vertex="1">
          <mxGeometry x="277" y="531" width="140" height="70" as="geometry" />
        </mxCell>
        <mxCell id="66" value="(0,N)" style="text;html=1;align=center;verticalAlign=middle;whiteSpace=wrap;rounded=0;" parent="1" vertex="1">
          <mxGeometry x="430" y="357" width="50" height="20" as="geometry" />
        </mxCell>
        <mxCell id="80" style="edgeStyle=none;rounded=0;html=1;exitX=0;exitY=1;exitDx=0;exitDy=0;entryX=1;entryY=0.5;entryDx=0;entryDy=0;endArrow=none;endFill=0;" parent="1" target="82" edge="1">
          <mxGeometry relative="1" as="geometry">
            <mxPoint x="312" y="583.5" as="sourcePoint" />
          </mxGeometry>
        </mxCell>
        <mxCell id="81" style="edgeStyle=none;rounded=0;html=1;exitX=0;exitY=0;exitDx=0;exitDy=0;endArrow=none;endFill=0;" parent="1" edge="1">
          <mxGeometry relative="1" as="geometry">
            <mxPoint x="60" y="464" as="targetPoint" />
            <mxPoint x="312" y="548.5" as="sourcePoint" />
            <Array as="points">
              <mxPoint x="60" y="549" />
            </Array>
          </mxGeometry>
        </mxCell>
        <mxCell id="82" value="Feedback" style="rounded=1;whiteSpace=wrap;html=1;fontSize=12;glass=0;strokeWidth=1;shadow=0;" parent="1" vertex="1">
          <mxGeometry x="100" y="569" width="70" height="30" as="geometry" />
        </mxCell>
        <mxCell id="87" value="(0,N)" style="text;html=1;align=center;verticalAlign=middle;resizable=0;points=[];autosize=1;strokeColor=none;fillColor=none;" parent="1" vertex="1">
          <mxGeometry x="175" y="181" width="50" height="30" as="geometry" />
        </mxCell>
        <mxCell id="88" value="(0,N)" style="text;html=1;align=center;verticalAlign=middle;resizable=0;points=[];autosize=1;strokeColor=none;fillColor=none;" parent="1" vertex="1">
          <mxGeometry x="175" y="265" width="50" height="30" as="geometry" />
        </mxCell>
        <mxCell id="89" value="(0,N)" style="text;html=1;align=center;verticalAlign=middle;resizable=0;points=[];autosize=1;strokeColor=none;fillColor=none;" parent="1" vertex="1">
          <mxGeometry x="175" y="351" width="50" height="30" as="geometry" />
        </mxCell>
        <mxCell id="92" value="(0,N)" style="text;html=1;align=center;verticalAlign=middle;resizable=0;points=[];autosize=1;strokeColor=none;fillColor=none;" parent="1" vertex="1">
          <mxGeometry x="175" y="525" width="50" height="30" as="geometry" />
        </mxCell>
        <mxCell id="102" value="(1,N)" style="text;html=1;align=center;verticalAlign=middle;resizable=0;points=[];autosize=1;strokeColor=none;fillColor=none;" parent="1" vertex="1">
          <mxGeometry x="215" y="215" width="50" height="30" as="geometry" />
        </mxCell>
        <mxCell id="103" value="(1,N)" style="text;html=1;align=center;verticalAlign=middle;resizable=0;points=[];autosize=1;strokeColor=none;fillColor=none;" parent="1" vertex="1">
          <mxGeometry x="215" y="300" width="50" height="30" as="geometry" />
        </mxCell>
        <mxCell id="104" value="(1,N)" style="text;html=1;align=center;verticalAlign=middle;resizable=0;points=[];autosize=1;strokeColor=none;fillColor=none;" parent="1" vertex="1">
          <mxGeometry x="215" y="385" width="50" height="30" as="geometry" />
        </mxCell>
        <mxCell id="107" value="(1,N)" style="text;html=1;align=center;verticalAlign=middle;resizable=0;points=[];autosize=1;strokeColor=none;fillColor=none;" parent="1" vertex="1">
          <mxGeometry x="215" y="560" width="50" height="30" as="geometry" />
        </mxCell>
        <mxCell id="qMOB81rM_Zeq2o3qiyjb-175" value="Cittadino" style="rounded=1;whiteSpace=wrap;html=1;fontSize=12;glass=0;strokeWidth=1;shadow=0;" parent="1" vertex="1">
          <mxGeometry x="615" y="240" width="70" height="30" as="geometry" />
        </mxCell>
        <mxCell id="qMOB81rM_Zeq2o3qiyjb-176" value="SuperAdmin" style="rounded=1;whiteSpace=wrap;html=1;fontSize=12;glass=0;strokeWidth=1;shadow=0;" parent="1" vertex="1">
          <mxGeometry x="710" y="240" width="80" height="30" as="geometry" />
        </mxCell>
        <mxCell id="qMOB81rM_Zeq2o3qiyjb-177" value="" style="endArrow=none;html=1;rounded=0;entryX=0.5;entryY=0;entryDx=0;entryDy=0;" parent="1" target="8" edge="1">
          <mxGeometry width="50" height="50" relative="1" as="geometry">
            <mxPoint x="650" y="220" as="sourcePoint" />
            <mxPoint x="556" y="246" as="targetPoint" />
            <Array as="points">
              <mxPoint x="650" y="240" />
              <mxPoint x="650" y="220" />
              <mxPoint x="556" y="220" />
            </Array>
          </mxGeometry>
        </mxCell>
        <mxCell id="qMOB81rM_Zeq2o3qiyjb-178" value="" style="endArrow=none;html=1;rounded=0;entryX=0.5;entryY=0;entryDx=0;entryDy=0;exitX=0.5;exitY=0;exitDx=0;exitDy=0;" parent="1" source="qMOB81rM_Zeq2o3qiyjb-176" edge="1">
          <mxGeometry width="50" height="50" relative="1" as="geometry">
            <mxPoint x="750" y="220" as="sourcePoint" />
            <mxPoint x="650" y="240" as="targetPoint" />
            <Array as="points">
              <mxPoint x="750" y="220" />
              <mxPoint x="744" y="220" />
              <mxPoint x="650" y="220" />
            </Array>
          </mxGeometry>
        </mxCell>
        <mxCell id="qMOB81rM_Zeq2o3qiyjb-179" value="" style="html=1;shadow=0;dashed=0;align=center;verticalAlign=middle;shape=mxgraph.arrows2.arrow;dy=0.58;dx=17;direction=north;notch=0;" parent="1" vertex="1">
          <mxGeometry x="630" y="190" width="40" height="30" as="geometry" />
        </mxCell>
        <mxCell id="qMOB81rM_Zeq2o3qiyjb-182" value="" style="triangle;whiteSpace=wrap;html=1;rotation=-90;fillColor=#000000;" parent="1" vertex="1">
          <mxGeometry x="639.78" y="176.63" width="20.44" height="38.75" as="geometry" />
        </mxCell>
        <mxCell id="qMOB81rM_Zeq2o3qiyjb-183" style="edgeStyle=none;rounded=0;html=1;exitX=0;exitY=1;exitDx=0;exitDy=0;entryX=1.012;entryY=0.876;entryDx=0;entryDy=0;endArrow=none;endFill=0;entryPerimeter=0;" parent="1" target="18" edge="1">
          <mxGeometry relative="1" as="geometry">
            <mxPoint x="311" y="455" as="sourcePoint" />
            <mxPoint x="169" y="455" as="targetPoint" />
            <Array as="points">
              <mxPoint x="200" y="455" />
            </Array>
          </mxGeometry>
        </mxCell>
        <mxCell id="qMOB81rM_Zeq2o3qiyjb-184" value="Partecipazione" style="rhombus;whiteSpace=wrap;html=1;shadow=0;fontFamily=Helvetica;fontSize=12;align=center;strokeWidth=1;spacing=6;spacingTop=-4;" parent="1" vertex="1">
          <mxGeometry x="277" y="437" width="140" height="70" as="geometry" />
        </mxCell>
        <mxCell id="qMOB81rM_Zeq2o3qiyjb-185" value="(1,N)" style="text;html=1;align=center;verticalAlign=middle;resizable=0;points=[];autosize=1;strokeColor=none;fillColor=none;" parent="1" vertex="1">
          <mxGeometry x="215" y="430" width="50" height="30" as="geometry" />
        </mxCell>
        <mxCell id="qMOB81rM_Zeq2o3qiyjb-186" value="(0,N)" style="text;html=1;align=center;verticalAlign=middle;resizable=0;points=[];autosize=1;strokeColor=none;fillColor=none;" parent="1" vertex="1">
          <mxGeometry x="175" y="465" width="50" height="30" as="geometry" />
        </mxCell>
        <mxCell id="qMOB81rM_Zeq2o3qiyjb-187" style="edgeStyle=none;rounded=0;html=1;exitX=0;exitY=0;exitDx=0;exitDy=0;endArrow=none;endFill=0;" parent="1" edge="1">
          <mxGeometry relative="1" as="geometry">
            <mxPoint x="60" y="370" as="targetPoint" />
            <mxPoint x="312" y="489.5" as="sourcePoint" />
            <Array as="points">
              <mxPoint x="60" y="490" />
            </Array>
          </mxGeometry>
        </mxCell>
        <mxCell id="qMOB81rM_Zeq2o3qiyjb-188" style="edgeStyle=none;rounded=0;html=1;entryX=0.939;entryY=0.443;entryDx=0;entryDy=0;endArrow=none;endFill=0;entryPerimeter=0;exitX=0.5;exitY=1;exitDx=0;exitDy=0;" parent="1" source="qMOB81rM_Zeq2o3qiyjb-175" target="qMOB81rM_Zeq2o3qiyjb-184" edge="1">
          <mxGeometry relative="1" as="geometry">
            <mxPoint x="574" y="358" as="sourcePoint" />
            <mxPoint x="405" y="466" as="targetPoint" />
            <Array as="points">
              <mxPoint x="650" y="470" />
            </Array>
          </mxGeometry>
        </mxCell>
        <mxCell id="qMOB81rM_Zeq2o3qiyjb-189" value="" style="endArrow=none;html=1;rounded=0;exitX=1;exitY=1;exitDx=0;exitDy=0;" parent="1" source="33" edge="1">
          <mxGeometry width="50" height="50" relative="1" as="geometry">
            <mxPoint x="390" y="410" as="sourcePoint" />
            <mxPoint x="520" y="260" as="targetPoint" />
            <Array as="points">
              <mxPoint x="382" y="260" />
            </Array>
          </mxGeometry>
        </mxCell>
        <mxCell id="qMOB81rM_Zeq2o3qiyjb-190" value="(0,N)" style="text;html=1;align=center;verticalAlign=middle;whiteSpace=wrap;rounded=0;" parent="1" vertex="1">
          <mxGeometry x="430" y="240" width="50" height="20" as="geometry" />
        </mxCell>
        <mxCell id="qMOB81rM_Zeq2o3qiyjb-191" value="(0,N)" style="text;html=1;align=center;verticalAlign=middle;whiteSpace=wrap;rounded=0;" parent="1" vertex="1">
          <mxGeometry x="435" y="449" width="50" height="20" as="geometry" />
        </mxCell>
      </root>
    </mxGraphModel>
  </diagram>
</mxfile>
